<?xml version="1.0" standalone="no"?>
<!DOCTYPE svg PUBLIC "-//W3C//DTD SVG 20010904//EN"
 "http://www.w3.org/TR/2001/REC-SVG-20010904/DTD/svg10.dtd">
<svg version="1.0" xmlns="http://www.w3.org/2000/svg"
 width="287.000000pt" height="287.000000pt" viewBox="0 0 287.000000 287.000000"
 preserveAspectRatio="xMidYMid meet">
<metadata>
Created by potrace 1.11, written by Peter Selinger 2001-2013
</metadata>
<g transform="translate(0.000000,287.000000) scale(0.100000,-0.100000)"
fill="#000000" stroke="none">
<path d="M1794 2808 c-21 -32 -43 -67 -49 -76 -5 -10 -20 -32 -32 -49 -13 -17
-23 -33 -23 -36 0 -3 17 -11 38 -17 96 -31 342 -168 342 -190 0 -5 8 -11 18
-14 17 -6 123 -105 172 -162 70 -80 130 -169 172 -254 12 -25 27 -48 32 -52 6
-4 7 -10 3 -14 -4 -4 -3 -12 3 -18 21 -26 72 -192 84 -271 3 -16 8 -48 12 -70
9 -50 10 -241 1 -315 -6 -57 -21 -144 -27 -160 -1 -3 -2 -8 -1 -12 0 -4 -7
-24 -15 -45 -9 -21 -16 -40 -16 -43 -1 -21 -78 -200 -95 -221 -7 -8 -13 -21
-13 -27 0 -7 -5 -12 -10 -12 -6 0 -9 -4 -8 -8 5 -14 -85 -133 -162 -215 -204
-217 -487 -358 -787 -394 -106 -12 -301 -6 -386 13 -12 3 -35 8 -52 11 -60 10
-212 66 -290 106 -130 66 -205 121 -324 234 -74 71 -61 76 -141 -47 l-49 -75
28 -25 c56 -50 81 -70 91 -70 6 0 10 -4 10 -10 0 -5 4 -10 9 -10 6 0 29 -13
53 -29 143 -95 367 -180 541 -206 17 -3 59 -9 92 -14 85 -13 315 -6 413 13
231 43 402 113 592 240 135 91 313 267 398 394 55 82 159 278 166 314 2 7 6
21 10 30 4 9 9 22 10 30 2 7 6 21 9 31 17 44 20 54 23 77 5 33 12 65 14 65 5
0 22 118 24 165 1 19 4 40 7 45 10 18 -2 265 -17 335 -3 14 -7 35 -9 48 -3 12
-7 32 -10 45 -6 29 -40 146 -49 172 -20 51 -25 63 -46 110 -12 28 -22 51 -21
52 1 4 -100 174 -114 192 -8 9 -32 41 -55 71 -105 142 -293 302 -461 392 l-65
36 -40 -60z"/>
<path d="M1216 2471 c-3 -5 3 -32 13 -62 11 -29 17 -57 15 -61 -3 -5 0 -8 6
-8 7 0 10 -7 7 -15 -4 -8 -2 -17 3 -20 19 -12 10 -61 -14 -84 -27 -25 -87 -34
-123 -18 -27 12 -41 58 -46 150 -1 15 -6 27 -10 27 -5 0 -6 8 -3 18 8 23 -7
44 -27 37 -10 -4 -14 -14 -11 -28 7 -33 7 -84 -1 -96 -9 -15 -80 -51 -101 -51
-34 0 -52 28 -44 65 4 19 7 35 6 36 -16 9 -44 -1 -101 -36 l-70 -43 2 -69 c1
-69 10 -113 33 -168 7 -16 14 -35 16 -42 3 -17 94 -193 104 -203 3 -3 25 -36
50 -74 24 -38 49 -74 55 -80 6 -6 17 -20 25 -32 82 -117 451 -484 488 -484 10
0 189 173 232 225 14 17 42 53 63 80 20 28 40 55 44 60 19 24 82 135 88 157 4
12 11 25 15 28 16 12 69 173 73 223 1 9 4 17 8 17 3 0 7 17 8 38 7 111 7 162
2 162 -3 0 -7 16 -8 36 -1 20 -9 57 -19 83 -14 40 -25 52 -78 83 -33 20 -83
47 -111 60 -58 28 -191 71 -205 66 -6 -2 1 -15 14 -29 14 -15 22 -30 19 -33
-4 -3 -1 -6 5 -6 10 0 25 -31 27 -55 1 -16 -17 -25 -53 -25 -61 0 -94 25 -137
103 -31 55 -46 73 -65 76 -23 3 -24 2 -9 -15 19 -23 77 -141 89 -183 7 -26 5
-32 -18 -47 -15 -10 -44 -17 -65 -17 -57 1 -84 25 -103 91 -9 31 -20 62 -24
67 -5 6 -8 12 -8 15 1 3 -5 22 -12 42 -14 37 -34 55 -44 39z"/>
<path d="M563 2148 c-13 -6 -23 -15 -23 -20 0 -5 -10 -19 -22 -32 -38 -39 -58
-66 -50 -66 4 0 -1 -5 -10 -11 -10 -5 -18 -17 -18 -24 0 -8 -4 -15 -8 -15 -8
0 -102 -182 -106 -204 -1 -6 -5 -17 -9 -23 -5 -7 -5 -13 -1 -13 3 0 0 -8 -7
-17 -12 -15 -12 -16 6 -10 152 47 166 50 176 40 17 -17 18 -77 2 -112 -17 -35
-35 -47 -78 -55 -93 -17 -135 -29 -145 -41 -20 -24 6 -27 97 -11 153 27 156
27 180 4 27 -25 31 -84 8 -127 -18 -36 -23 -38 -120 -40 -116 -3 -175 -8 -182
-15 -19 -18 26 -28 135 -29 99 -2 123 -5 139 -20 21 -19 45 -82 34 -92 -3 -4
-7 -11 -7 -16 -1 -5 -2 -13 -3 -18 -2 -18 -31 -40 -49 -37 -9 2 -44 7 -77 10
-81 10 -129 17 -137 22 -4 2 -9 1 -12 -4 -10 -17 12 -32 69 -45 49 -11 64 -19
82 -47 26 -37 31 -107 10 -116 -8 -3 -34 2 -58 10 -24 8 -45 13 -47 11 -3 -2
8 -30 24 -62 24 -48 37 -62 76 -80 184 -87 464 -56 743 83 113 56 135 72 117
83 -65 40 -279 253 -382 380 -19 24 -41 49 -47 56 -7 8 -13 18 -13 24 0 6 -4
11 -10 11 -5 0 -10 6 -10 13 0 8 -9 22 -20 32 -11 10 -20 24 -20 30 0 7 -7 18
-16 25 -8 8 -22 27 -30 44 -8 17 -27 55 -43 85 -35 62 -81 175 -87 211 -3 14
-7 32 -10 40 -9 25 -16 63 -17 93 0 15 -4 27 -9 27 -5 0 -6 5 -3 11 5 7 15 74
11 68 -1 0 -11 -5 -23 -11z"/>
<path d="M2120 2156 c0 -3 4 -16 10 -31 29 -75 33 -251 8 -365 -16 -77 -72
-238 -87 -250 -3 -3 -7 -12 -9 -20 -2 -8 -17 -36 -33 -63 -16 -26 -29 -50 -29
-53 0 -2 -4 -10 -10 -17 -5 -7 -32 -42 -59 -78 -69 -94 -173 -208 -234 -256
l-26 -20 103 -62 c57 -33 106 -61 109 -61 4 0 30 -11 59 -24 129 -58 308 -93
355 -68 17 9 83 123 84 144 0 4 6 20 14 35 8 15 13 29 11 31 -2 2 -33 -5 -68
-15 -69 -20 -107 -19 -109 3 -1 8 -2 22 -2 32 -1 11 7 37 17 60 20 44 23 45
126 58 67 8 91 19 84 39 -4 8 -10 13 -15 10 -4 -3 -48 -8 -96 -11 -48 -4 -90
-7 -93 -7 -16 -3 -50 17 -50 29 0 8 -4 14 -8 14 -5 0 -8 10 -6 23 1 12 3 32 3
43 2 35 46 72 83 68 113 -10 198 -13 202 -6 11 18 -13 30 -79 37 -113 12 -123
13 -144 24 -24 13 -38 55 -34 100 6 67 32 74 148 42 39 -11 78 -23 88 -27 12
-4 17 -2 15 7 -5 22 -21 34 -66 49 -39 12 -70 43 -64 63 1 4 -1 7 -5 7 -7 0
-9 50 -4 83 2 12 30 8 62 -9 17 -8 32 -14 34 -12 1 2 -5 19 -13 38 -9 19 -16
41 -18 48 -5 24 -99 202 -113 212 -4 3 -18 21 -31 40 -13 19 -39 51 -57 70
-18 19 -33 38 -33 43 0 4 -4 7 -10 7 -5 0 -10 -2 -10 -4z"/>
<path d="M1444 849 c-91 -62 -334 -163 -439 -183 -85 -16 -107 -18 -190 -20
-95 -3 -200 13 -272 40 -24 9 -46 14 -49 11 -7 -7 130 -142 197 -194 88 -67
305 -180 330 -171 4 2 -1 21 -12 43 -25 52 -19 65 31 65 52 0 110 -30 110 -57
0 -5 9 -28 20 -51 14 -29 27 -42 41 -42 17 0 18 2 7 23 -7 12 -11 25 -10 30 1
4 -2 7 -6 7 -5 0 -9 6 -10 13 -2 22 -8 41 -19 62 -22 42 10 75 73 75 51 0 95
-32 99 -72 2 -14 6 -35 9 -46 12 -35 18 -66 18 -85 -1 -12 7 -17 24 -17 14 0
23 4 20 8 -6 10 -16 56 -22 102 -2 19 -6 40 -8 46 -11 30 50 70 102 67 51 -3
66 -15 67 -56 1 -18 5 -38 8 -44 4 -6 1 -14 -5 -16 -9 -4 -9 -6 -1 -6 7 -1 9
-15 6 -41 -5 -35 -3 -40 14 -40 15 0 20 6 19 22 -1 13 1 28 5 33 4 6 7 15 6
20 -1 16 64 55 92 55 41 0 53 -13 48 -49 -3 -17 -1 -31 4 -31 18 0 169 79 231
121 71 49 200 168 193 179 -3 4 -20 5 -37 1 -36 -7 -46 -7 -138 3 -113 13
-302 84 -433 164 -85 52 -90 53 -123 31z"/>
</g>
</svg>
