<?xml version="1.0" encoding="UTF-8" standalone="no"?>
<svg width="40px" height="37px" viewBox="0 0 40 37" version="1.1" xmlns="http://www.w3.org/2000/svg" xmlns:xlink="http://www.w3.org/1999/xlink">
    <!-- Generator: Sketch 3.7.2 (28276) - http://www.bohemiancoding.com/sketch -->
    <title>thumb-up</title>
    <desc>Created with Sketch.</desc>
    <defs></defs>
    <g id="spotland" stroke="none" stroke-width="1" fill="none" fill-rule="evenodd">
        <g id="Desktop-HD-Copy" transform="translate(-220.000000, -840.000000)" fill="#FFFFFF">
            <g id="thumb-up" transform="translate(220.000000, 840.000000)">
                <path d="M0,36.3636364 L7.27272727,36.3636364 L7.27272727,14.5454545 L0,14.5454545 L0,36.3636364 L0,36.3636364 Z M40,16.3636364 C40,14.3636364 38.3636364,12.7272727 36.3636364,12.7272727 L24.9090909,12.7272727 L26.7272727,4.36363636 L26.7272727,3.81818182 C26.7272727,3.09090909 26.3636364,2.36363636 26,1.81818182 L24,0 L12,12 C11.2727273,12.5454545 10.9090909,13.4545455 10.9090909,14.5454545 L10.9090909,32.7272727 C10.9090909,34.7272727 12.5454545,36.3636364 14.5454545,36.3636364 L30.9090909,36.3636364 C32.3636364,36.3636364 33.6363636,35.4545455 34.1818182,34.1818182 L39.6363636,21.2727273 C39.8181818,20.9090909 39.8181818,20.3636364 39.8181818,20 L39.8181818,16.3636364 L40,16.3636364 C40,16.5454545 40,16.3636364 40,16.3636364 L40,16.3636364 Z" id="Shape"></path>
            </g>
        </g>
    </g>
</svg>